<svg xmlns="http://www.w3.org/2000/svg" viewBox="0 0 119.66 40"><title>android_outline</title><path d="M119.49,8.28V7.36a15.18,15.18,0,0,0-.19-2,6.42,6.42,0,0,0-.62-1.9,6.3,6.3,0,0,0-1.18-1.62A6.54,6.54,0,0,0,115.88.65,6.8,6.8,0,0,0,114,0a13.27,13.27,0,0,0-2-.17H7.35a13.5,13.5,0,0,0-2,.17,6.74,6.74,0,0,0-1.9.63A6.54,6.54,0,0,0,1.83,1.83,6.3,6.3,0,0,0,.65,3.45,6.42,6.42,0,0,0,0,5.35a13.65,13.65,0,0,0-.18,2c0,.3,0,.61,0,.92V31.39c0,.31,0,.61,0,.92a13.65,13.65,0,0,0,.18,2,6.42,6.42,0,0,0,.62,1.9,6.25,6.25,0,0,0,1.18,1.61A6.07,6.07,0,0,0,3.45,39a6.44,6.44,0,0,0,1.9.63,13.51,13.51,0,0,0,2,.18H112a13.28,13.28,0,0,0,2-.18,6.5,6.5,0,0,0,1.91-.63,6.07,6.07,0,0,0,1.62-1.18,6.25,6.25,0,0,0,1.18-1.61,6.42,6.42,0,0,0,.62-1.9,15.18,15.18,0,0,0,.19-2v-.92c0-.36,0-.72,0-1.09V9.37C119.5,9,119.5,8.64,119.49,8.28Zm-.87,22v1.07c0,.33,0,.63,0,.93a12,12,0,0,1-.17,1.86,5.74,5.74,0,0,1-.54,1.67,5.4,5.4,0,0,1-1,1.38,5.52,5.52,0,0,1-1.4,1,5.66,5.66,0,0,1-1.67.55A12.73,12.73,0,0,1,112,39H7.37a12.85,12.85,0,0,1-1.87-.17,6,6,0,0,1-1.65-.54,5.65,5.65,0,0,1-1.4-1,5.56,5.56,0,0,1-1.56-3,12.45,12.45,0,0,1-.17-1.88c0-.21,0-.91,0-.91V8.28s0-.69,0-.9A12.21,12.21,0,0,1,.89,5.51a5.58,5.58,0,0,1,.54-1.66,5.48,5.48,0,0,1,1-1.4,5.41,5.41,0,0,1,1.4-1A5.94,5.94,0,0,1,5.5.88,12.22,12.22,0,0,1,7.38.72H112a12,12,0,0,1,1.86.16,6.18,6.18,0,0,1,1.67.55,5.54,5.54,0,0,1,1.39,1,5.48,5.48,0,0,1,1,1.4,5.61,5.61,0,0,1,.54,1.65,12.29,12.29,0,0,1,.17,1.89c0,.28,0,.58,0,.89v22Z" transform="translate(0.17 0.17)" style="fill:#a7a7a7"/><path d="M41.73,10.8a2.39,2.39,0,0,1-.66,1.77,2.58,2.58,0,0,1-2,.78,2.72,2.72,0,0,1-2.75-2.77,2.65,2.65,0,0,1,.8-2,2.69,2.69,0,0,1,1.95-.8A2.87,2.87,0,0,1,40.21,8a2.1,2.1,0,0,1,.83.6l-.46.46a1.81,1.81,0,0,0-1.46-.63,2,2,0,0,0-1.45.59,2.08,2.08,0,0,0-.61,1.53,2,2,0,0,0,.61,1.53,2.13,2.13,0,0,0,2.94,0A1.69,1.69,0,0,0,41.05,11H39.12V10.4h2.57A1.87,1.87,0,0,1,41.73,10.8Z" transform="translate(0.17 0.17)" style="fill:#a7a7a7"/><path d="M45.81,8.58H43.39v1.68h2.18v.64H43.39v1.68h2.42v.66h-3.1V7.93h3.1Z" transform="translate(0.17 0.17)" style="fill:#a7a7a7"/><path d="M48.68,13.24H48V8.58H46.52V7.93h3.64v.65H48.68Z" transform="translate(0.17 0.17)" style="fill:#a7a7a7"/><path d="M52.8,13.24V7.93h.68v5.31Z" transform="translate(0.17 0.17)" style="fill:#a7a7a7"/><path d="M56.51,13.24h-.69V8.58H54.34V7.93H58v.65H56.51Z" transform="translate(0.17 0.17)" style="fill:#a7a7a7"/><path d="M64.89,12.55a2.76,2.76,0,0,1-3.89,0,2.72,2.72,0,0,1-.78-2,2.7,2.7,0,0,1,.78-2,2.74,2.74,0,0,1,3.89,0,2.72,2.72,0,0,1,.78,2A2.72,2.72,0,0,1,64.89,12.55Zm-3.39-.44a2.06,2.06,0,0,0,2.89,0A2.1,2.1,0,0,0,65,10.58a2.1,2.1,0,0,0-.59-1.52,2,2,0,0,0-2.89,0,2.1,2.1,0,0,0-.59,1.52A2.1,2.1,0,0,0,61.5,12.11Z" transform="translate(0.17 0.17)" style="fill:#a7a7a7"/><path d="M66.63,13.24V7.93h.83L70,12.06h0l0-1V7.93h.68v5.31H70l-2.7-4.33h0l0,1v3.31Z" transform="translate(0.17 0.17)" style="fill:#a7a7a7"/><path d="M60.05,21a3.77,3.77,0,1,0,3.78,3.77A3.71,3.71,0,0,0,60.05,21Zm0,6a2.28,2.28,0,1,1,2.12-2.27A2.17,2.17,0,0,1,60.05,27Zm-8.23-6a3.77,3.77,0,1,0,3.77,3.77A3.72,3.72,0,0,0,51.82,21Zm0,6a2.28,2.28,0,1,1,2.12-2.27A2.18,2.18,0,0,1,51.82,27ZM42,22.13v1.59h3.82a3.38,3.38,0,0,1-.87,2A3.91,3.91,0,0,1,42,26.9a4.25,4.25,0,0,1,0-8.49,4.09,4.09,0,0,1,2.88,1.14L46,18.42a5.55,5.55,0,0,0-4-1.6A5.84,5.84,0,1,0,42,28.5a5.18,5.18,0,0,0,5.46-5.37,5,5,0,0,0-.09-1Zm40.06,1.24A3.5,3.5,0,0,0,78.86,21a3.58,3.58,0,0,0-3.54,3.77,3.68,3.68,0,0,0,3.73,3.76,3.74,3.74,0,0,0,3.13-1.67L80.9,26a2.14,2.14,0,0,1-1.85,1,1.93,1.93,0,0,1-1.83-1.13l5-2.08ZM77,24.62a2.07,2.07,0,0,1,2-2.19,1.46,1.46,0,0,1,1.4.8Zm-4.08,3.65h1.65V17.21H72.87Zm-2.71-6.45H70.1a2.58,2.58,0,0,0-2-.85,3.77,3.77,0,0,0,0,7.53,2.55,2.55,0,0,0,2-.86h.06v.54c0,1.44-.77,2.21-2,2.21a2.07,2.07,0,0,1-1.89-1.34l-1.44.6a3.57,3.57,0,0,0,3.33,2.22c1.94,0,3.58-1.14,3.58-3.91V21.2H70.16ZM68.26,27a2.28,2.28,0,0,1,0-4.55,2.12,2.12,0,0,1,2,2.29A2.1,2.1,0,0,1,68.26,27Zm21.56-9.8H85.87V28.27h1.65V24.08h2.3a3.44,3.44,0,1,0,0-6.87Zm.05,5.33H87.52V18.75h2.35a1.9,1.9,0,1,1,0,3.79ZM100.06,21a3.09,3.09,0,0,0-2.94,1.7l1.46.61a1.58,1.58,0,0,1,1.51-.81,1.6,1.6,0,0,1,1.74,1.42V24a3.68,3.68,0,0,0-1.72-.42c-1.58,0-3.19.86-3.19,2.49a2.55,2.55,0,0,0,2.74,2.43,2.35,2.35,0,0,0,2.11-1.08h.06v.85h1.59V24C103.42,22.05,102,21,100.06,21ZM99.86,27c-.54,0-1.29-.27-1.29-.94,0-.85.94-1.18,1.75-1.18a3,3,0,0,1,1.51.37A2,2,0,0,1,99.86,27Zm9.36-5.81L107.33,26h-.06l-2-4.79h-1.78l3,6.69-1.68,3.73h1.72l4.54-10.42ZM94.36,28.27H96V17.21H94.36Z" transform="translate(0.17 0.17)" style="fill:#a7a7a7"/><path d="M8.62,19.32V9.51A1.47,1.47,0,0,1,9,8.43c.12-.12.2-.15.34,0l6.78,6.73,4.39,4.35c.15.14.16.21,0,.36Q15.1,25.1,9.73,30.35a.38.38,0,0,1-.52.07l-.06-.07a1.32,1.32,0,0,1-.53-1.11V19.32Z" transform="translate(0.17 0.17)" style="fill:#a7a7a7"/><path d="M9.9,8.06a1.16,1.16,0,0,1,.65.18l13.78,7.51c.21.12.21.17,0,.33l-3.06,3c-.11.1-.18.17-.32,0Q15.47,13.65,10,8.2A.75.75,0,0,1,9.9,8.06Z" transform="translate(0.17 0.17)" style="fill:#a7a7a7"/><path d="M10.92,30.26l10-9.87c.21-.2.3-.18.49,0,.85.83,1.71,1.67,2.56,2.54.15.15.17.21,0,.32L11.1,30.12Z" transform="translate(0.17 0.17)" style="fill:#a7a7a7"/><path d="M30,19.41a1,1,0,0,1-.46.84,6,6,0,0,1-.64.38L25,22.72a.28.28,0,0,1-.4,0l0,0c-1-.94-1.9-1.86-2.82-2.78-.13-.14-.13-.2,0-.34C22.87,18.5,24,17.46,25,16.4a.28.28,0,0,1,.38,0h0c1.27.71,2.57,1.4,3.84,2.1A1.18,1.18,0,0,1,30,19.41Z" transform="translate(0.17 0.17)" style="fill:#a7a7a7"/></svg>